Simulation
nRows=42
nColumns=15
endheader
time  TH_x TH_y TH_z SC_y  SC_z  SC_x  AC_y  AC_z  AC_x  GH_y  GH_z  GH_yy  EL_x  PS_y
0.0  0.000000  0.000000  0.000000  -23.95639538732779  2.6400627000853523  8.882465046542347  54.617196681856676  1.4456936421264108  0.4907855585676441  -133.82119533274704  6.027425640855585  -174.2306396713542  21.940918307080047  120.000000
0.02849999999999998  0.000000  0.000000  0.000000  -23.744907155278618  2.677776309688215  7.892763198946904  54.48782213212464  2.4035294511921697  1.0148072899476726  -135.53034075638647  4.559558031780256  -172.5465548067407  21.313959073017013  120.000000
0.05699999999999996  0.000000  0.000000  0.000000  -23.559176647268387  2.707421312996443  6.913340844549279  54.34937369455404  3.301613596044789  1.5158685674290306  -139.68655847441087  3.095940937183343  -168.64077676883431  20.7076016486787  120.000000
0.08549999999999994  0.000000  0.000000  0.000000  -23.418544678584276  2.744664748811876  5.970561874769722  54.198507524959886  4.167816479403928  1.9909163880013407  -152.64727565720702  1.6617746067171633  -156.12308251081845  20.122486576696854  120.000000
0.11399999999999992  0.000000  0.000000  0.000000  -23.334257661630666  2.800950679433955  5.089349476282764  54.039073978211306  5.022798421635277  2.4364589575935  137.12885674552447  0.796900471437222  -86.5091296969  19.564542650854335  120.000000
0.1424999999999999  0.000000  0.000000  0.000000  -23.30773798038823  2.8770914862346464  4.291901278450298  53.8802653056555  5.876515405578957  2.8521175105929064  80.3344224319574  1.9645631367999392  -30.478315460128105  19.043040998910637  120.000000
0.17099999999999987  0.000000  0.000000  0.000000  -23.33489662803085  2.9690389060231426  3.5960163199217834  53.73319148263413  6.730035910396849  3.2397937146178872  69.58290501257582  3.670998301801292  -20.644526707762406  18.570201157397147  120.000000
0.19949999999999987  0.000000  0.000000  0.000000  -23.406595494243337  3.0690753213862103  3.013399282441834  53.61064273970675  7.577908621939605  3.601133044536007  65.71619867619061  5.554259307683779  -17.85510510150984  18.15898067750328  120.000000
0.22799999999999984  0.000000  0.000000  0.000000  -23.51310088269327  3.1700166646300616  2.5493922974080157  53.524800265736104  8.411089443972891  3.93690036837016  63.73098758758429  7.584119664329216  -17.114485671076928  17.823490167170558  120.000000
0.25649999999999984  0.000000  0.000000  0.000000  -23.64451456440511  3.2650679533977214  2.2047985903646063  53.48642916736905  9.220099339042427  4.24727572984922  62.412504582258684  9.745707020910887  -17.210904674695684  17.576344774936672  120.000000
0.2849999999999998  0.000000  0.000000  0.000000  -23.793738318170345  3.3498733077433127  1.9773538648890638  53.50351250811309  9.997258671090487  4.532455215223026  61.32628873257241  12.020289087759995  -17.706915474910872  17.427117023983794  120.000000
0.3134999999999998  0.000000  0.000000  0.000000  -23.95579079315566  3.4227759022712245  1.863161331114099  53.581248428668424  10.73814326272785  4.79204671594135  60.29122421439725  14.384486422346143  -18.40885174887274  17.378184969927354  120.000000
0.34199999999999975  0.000000  0.000000  0.000000  -24.129429729182707  3.4849496146741785  1.8578974894789229  53.72082948109927  11.441784626967943  5.026193189125593  59.23294995948064  16.811892125074593  -19.220192162982556  17.422830397802592  120.000000
0.3704999999999997  0.000000  0.000000  0.000000  -24.31532290732516  3.5396896906991353  1.956592837636729  53.92007096316546  12.109547522599089  5.234476277874788  58.13292087820633  19.2760422070095  -20.09248850563811  17.544423564193202  120.000000
0.39899999999999974  0.000000  0.000000  0.000000  -24.516046382677796  3.5908878402691284  2.154885109763984  54.17285354882629  12.744314888136925  5.4182136430417165  56.99935122501526  21.75050641235188  -20.996652869797515  17.720446754926513  120.000000
0.4274999999999997  0.000000  0.000000  0.000000  -24.73300296590125  3.6425556911270496  2.4479899667847964  54.471159054425435  13.348931430806495  5.578885184921591  55.85195951775057  24.210790273918168  -21.91532269752181  17.927424112075695  120.000000
0.4559999999999997  0.000000  0.000000  0.000000  -24.967671709718296  3.697423082744857  2.8313468542135  54.80488598971965  13.925539955564478  5.719941943019497  54.71214429897105  26.6331164754134  -22.834968081919474  18.14662582454568  120.000000
0.48449999999999965  0.000000  0.000000  0.000000  -25.22017959370716  3.756869323161313  3.2984900421698304  55.16406111124475  14.47384497573984  5.844083885942993  53.59577214744243  28.996367692861956  -23.746646228505444  18.367861242971014  120.000000
0.5129999999999997  0.000000  0.000000  0.000000  -25.49034443661293  3.82113762866078  3.842316830877749  55.53856108371397  14.992063661343295  5.9545991520124115  52.510986832576194  31.279921283561045  -24.640391688748473  18.591569799881334  120.000000
0.5414999999999996  0.000000  0.000000  0.000000  -25.776384885656885  3.8898079975409985  4.454115275694158  55.91881571520941  15.476392901320452  6.053658270568523  51.458215262135084  33.46544173133208  -25.508219293672273  18.826029596076577  120.000000
0.5699999999999996  0.000000  0.000000  0.000000  -26.075881324364058  3.962612718054561  5.1255302369321125  56.29536442168701  15.922762875503688  6.143904230482559  50.43339908792936  35.53542638386388  -26.342307609811762  19.083353586544547  120.000000
0.5984999999999996  0.000000  0.000000  0.000000  -26.38460607342427  4.04060591381259  5.8481096113722995  56.65951844804615  16.327148551614275  6.2266388504678565  49.43160563290593  37.475555846035185  -27.138504317590645  19.37352332339028  120.000000
0.6269999999999996  0.000000  0.000000  0.000000  -26.69721267439474  4.125661089707488  6.615502286464884  57.00291894053041  16.686782330548077  6.304131814363467  48.45023474112235  39.27386729803977  -27.895167397939286  19.700637843637185  120.000000
0.6554999999999995  0.000000  0.000000  0.000000  -27.006341706026273  4.2198407591674325  7.423374990944159  57.31727848663297  16.999979894587437  6.3792278030868195  47.490361065340196  40.9220942349333  -28.614380050844844  20.060255196075893  120.000000
0.6839999999999995  0.000000  0.000000  0.000000  -27.304683391736816  4.326266933562391  8.270572899188027  57.594975151936154  17.267104489860422  6.454907966388565  46.5560529904782  42.414946450730824  -29.299777051798394  20.44098821332676  120.000000
0.7124999999999995  0.000000  0.000000  0.000000  -27.584824323148588  4.447934975670834  9.157965713051262  57.82941486302743  17.49004434514438  6.533576324379687  45.65213574850508  43.749989789332574  -29.956120979616195  20.82760533484016  120.000000
0.7409999999999994  0.000000  0.000000  0.000000  -27.840620618966025  4.58583160389156  10.088999360038086  58.01531492595473  17.671556861099557  6.618124587063679  44.78372091602931  44.927213436079526  -30.5879276793083  21.206305928489016  120.000000
0.7694999999999995  0.000000  0.000000  0.000000  -28.06675064491541  4.738310832722324  11.06805582570288  58.149328806233314  17.814675368405073  6.711520290971202  43.95378060140056  45.94812847685853  -31.198641349731123  21.568550915361115  120.000000
0.7979999999999995  0.000000  0.000000  0.000000  -28.261070737692545  4.901270444023376  12.100522667318767  58.2298428835695  17.922494801256803  6.816390675563814  43.161887178864916  46.81635493529188  -31.788691753548864  21.913711028919927  120.000000
0.8264999999999995  0.000000  0.000000  0.000000  -28.42434079264395  5.068659612047634  13.190903497409545  58.25654944058246  17.99797627811609  6.935219231880201  42.4039100404407  47.5364501565761  -32.35526275538755  22.24800400924019  120.000000
0.8549999999999994  0.000000  0.000000  0.000000  -28.56001196734812  5.232117426132404  14.341400907316743  58.23049080508736  18.042204612311608  7.070752744165409  41.67402375035603  48.115422519211485  -32.8917140271141  22.581753227062006  120.000000
0.8834999999999994  0.000000  0.000000  0.000000  -28.67249254828614  5.382617545469032  15.549689454027167  58.15460703201247  18.053921883754843  7.2261479032561775  40.96813208424645  48.561484872358854  -33.38978150441413  22.925148234060636  120.000000
0.9119999999999994  0.000000  0.000000  0.000000  -28.76689849787485  5.511626196228524  16.80820677779598  58.03417764824658  18.028281250452736  7.4040310960726  40.285630122250545  48.88707305667245  -33.838927316782886  23.28420272295798  120.000000
0.9404999999999993  0.000000  0.000000  0.000000  -28.849309747570633  5.612912890866131  18.104734911652052  57.87622712189161  17.958570832210775  7.605904247715761  39.62919215400457  49.10713001455134  -34.22869497486998  23.657680691118482  120.000000
0.9689999999999993  0.000000  0.000000  0.000000  -28.927989131218283  5.683430180456822  19.423039797176386  57.689186150328304  17.83733852868248  7.8298623694861496  39.00357550281849  49.24225174217619  -34.54791795356213  24.036261812961417  120.000000
0.9974999999999993  0.000000  0.000000  0.000000  -29.0112322174503  5.722855368143168  20.74390962250253  57.48378498784854  17.658901694805593  8.070076206855196  38.41491651026529  49.31364696002461  -34.78891178995992  24.405030241146083  120.000000
1.0259999999999994  0.000000  0.000000  0.000000  -29.106112866721595  5.733802391122487  22.04607858552779  57.273308793215115  17.42031777535988  8.314974907604501  37.87032159263206  49.34463004966238  -34.94808503570026  24.74671048578613  120.000000
1.0544999999999993  0.000000  0.000000  0.000000  -29.21699875579059  5.720982119229255  23.30814160104219  57.07300172303002  17.12313208835591  8.5490986151779  37.37665580987768  49.354185181065965  -35.027965205788675  25.046071819594463  120.000000
1.0829999999999993  0.000000  0.000000  0.000000  -29.343109265942992  5.690709454561712  24.50848637648086  56.898683015811606  16.77436714852601  8.754505807249068  36.94100540059818  49.357997852189065  -35.03796507312451  25.292513696204757  120.000000
1.1114999999999993  0.000000  0.000000  0.000000  -29.478327357360893  5.649797506890006  25.626654015717214  56.76480843364304  16.387037915399965  8.914515990570198  36.56961065399881  49.364402137711025  -34.99239085880411  25.48158839601746  120.000000
1.1399999999999992  0.000000  0.000000  0.000000  -29.61257468723255  5.6034729768648734  26.64432961444866  56.68097157355258  15.978050374296858  9.016113233969294  36.26679625450258  49.37741148690393  -34.909617712266005  25.613761101547446  120.000000
1.1684999999999992  0.000000  0.000000  0.000000  -29.734734224203685  5.554698298202712  27.54594572391342  56.651371576027195  15.565300917886816  9.050685170331972  36.03476389549064  49.395634331223484  -34.80745293121768  25.692827177192445  120.000000
